:SAMPLES-PER-SECOND 30
:FULLY-SPECIFIED
:DEGREES
948
root  5.06809 37.7873 1.85604 35.1905 -83.8526 -40.9012
RightUpLeg  -17.435 -3.1655 6.16519
RightLeg  29.3798 -3.6185 -2.45762
RightFoot  -6.38569 0.146097 -4.3647
RightToes  -4.65663e-010 0 -3.6325e-017
Spine  6.15879 -1.57408 12.6737
Spine1  7.87591 0.273432 0.251986
HEad  -19.8114 -3.61038 -2.08288
LeftShoulder1  -0.671572 5.16734 -34.1974
LeftArm  -2.78925 11.7562 -39.9057
LeftForeArm  50.0051 -3.13272 -9.73526
LeftHand  -0.303828 10.6062 -5.24421
RightShoulder  -0.977027 -6.24302 29.1135
RightArm  14.9025 4.47769 46.9711
RightForeArm  15.6661 12.801 6.093
RightHand  0.00385522 3.30997 -0.166307
LeftUpLeg  -2.38701 -2.80934 5.64551
LeftLeg  62.5163 -3.52952 -6.78576
LeftFoot  8.70798 1.53613 -8.95398
LeftToes  8.74931e-010 -1.05764e-010 1.2659e-011
949
root  3.82857 38.0097 1.78112 31.5206 -84.4496 -37.3726
RightUpLeg  -14.8771 -3.24314 5.65146
RightLeg  29.0598 -3.37113 -2.28356
RightFoot  -8.45816 0.0503853 -4.28788
RightToes  -4.65663e-010 0 -3.6325e-017
Spine  5.87866 -1.01321 12.9696
Spine1  7.75564 1.11578 -0.626498
HEad  -18.6543 -4.62826 -1.98513
LeftShoulder1  -0.635908 5.09934 -33.6942
LeftArm  -1.30593 14.0727 -38.1655
LeftForeArm  47.373 -5.15997 -10.2081
LeftHand  -0.28478 10.8489 -4.49473
RightShoulder  -1.00004 -6.31839 28.9812
RightArm  18.1035 5.88064 47.1979
RightForeArm  12.5581 15.3417 5.80121
RightHand  -0.085197 3.95163 -1.33709
LeftUpLeg  -6.86329 -3.5353 4.93358
LeftLeg  65.2224 -2.76514 -5.89636
LeftFoot  7.07319 0.882906 -5.73341
LeftToes  8.74931e-010 -1.05764e-010 1.2659e-011
950
root  2.56399 38.247 1.70833 30.7694 -85.3233 -36.8878
RightUpLeg  -11.7862 -3.48208 5.23392
RightLeg  27.983 -2.61775 -1.78634
RightFoot  -10.2529 -0.0263515 -4.52672
RightToes  -4.65663e-010 0 -3.6325e-017
Spine  5.8097 -0.347429 13.5711
Spine1  7.32971 2.11001 -1.94343
HEad  -17.5639 -5.16477 -2.46847
LeftShoulder1  -0.635376 5.11811 -33.2059
LeftArm  -0.0462738 16.1594 -36.7708
LeftForeArm  41.5865 -7.17344 -9.99921
LeftHand  -0.165271 9.6464 -2.95496
RightShoulder  -0.994556 -6.32687 28.6807
RightArm  21.2488 6.7453 47.4589
RightForeArm  10.2386 18.5796 5.04302
RightHand  -0.0918283 3.80754 -1.42247
LeftUpLeg  -10.5714 -3.8306 4.42735
LeftLeg  65.2047 -2.21097 -4.59066
LeftFoot  5.04529 0.594579 -4.31693
LeftToes  8.74931e-010 -1.05764e-010 1.2659e-011
951
root  1.29319 38.4733 1.63702 30.3298 -86.5869 -36.5533
RightUpLeg  -8.79649 -3.81504 4.56677
RightLeg  26.7023 -1.47596 -1.18441
RightFoot  -11.7115 -0.0943159 -4.80084
RightToes  -4.65663e-010 0 -3.6325e-017
Spine  5.60269 0.344779 14.1687
Spine1  6.80116 3.12126 -3.78499
HEad  -16.5972 -5.13931 -2.84533
LeftShoulder1  -0.649548 5.18254 -32.534
LeftArm  0.857549 17.9499 -36.0777
LeftForeArm  35.7166 -9.1644 -9.44556
LeftHand  -0.183854 10.3356 -2.88743
RightShoulder  -0.967873 -6.26612 28.4746
RightArm  22.5524 7.37487 47.8235
RightForeArm  8.7751 21.6779 4.53081
RightHand  -0.0894721 4.56771 -1.32885
LeftUpLeg  -13.8298 -3.61063 3.77229
LeftLeg  62.7118 -2.41204 -4.47509
LeftFoot  2.16688 0.297336 -2.63972
LeftToes  8.74931e-010 -1.05764e-010 1.2659e-011
952
root  0.0655486 38.5923 1.58767 32.4371 -87.5057 -38.9961
RightUpLeg  -5.75455 -4.74918 4.00002
RightLeg  25.6499 -0.0342226 -0.551025
RightFoot  -13.4625 -0.182425 -4.92922
RightToes  -4.65663e-010 0 -3.6325e-017
Spine  5.818 0.787654 14.5435
Spine1  6.26749 3.70348 -4.77259
HEad  -15.9674 -5.46836 -3.17643
LeftShoulder1  -0.680123 5.2483 -32.8306
LeftArm  2.16069 18.8977 -35.1444
LeftForeArm  30.8149 -11.2066 -8.79929
LeftHand  -0.15982 11.1952 -1.87312
RightShoulder  -0.917056 -6.16167 27.9321
RightArm  21.7163 8.08711 48.303
RightForeArm  9.52946 24.6582 4.74222
RightHand  -0.0782351 4.36773 -1.20426
LeftUpLeg  -16.476 -3.30217 3.46573
LeftLeg  58.3633 -2.96139 -4.67941
LeftFoot  0.0280295 0.206461 -2.08837
LeftToes  8.74931e-010 -1.05764e-010 1.2659e-011
953
root  -1.15057 38.6771 1.54106 49.7769 -88.463 -56.6396
RightUpLeg  -2.724 -5.38931 3.52023
RightLeg  24.466 1.4976 0.0423285
RightFoot  -14.9494 -0.266001 -5.23254
RightToes  -4.65663e-010 0 -3.6325e-017
Spine  6.32161 1.12517 15.3314
Spine1  5.40429 4.28517 -6.54775
HEad  -15.9744 -5.33629 -3.53733
LeftShoulder1  -0.671514 5.2304 -32.7358
LeftArm  2.70838 19.3844 -34.8488
LeftForeArm  28.5935 -12.5708 -8.19145
LeftHand  -0.15598 10.889 -1.93419
RightShoulder  -0.953886 -6.25881 28.0625
RightArm  20.8472 8.80536 48.5327
RightForeArm  10.2654 27.6693 5.41949
RightHand  -0.131703 4.90969 -1.78438
LeftUpLeg  -18.3775 -1.98218 3.41416
LeftLeg  51.9713 -3.52551 -4.37262
LeftFoot  -0.980949 0.165951 -1.76273
LeftToes  8.74931e-010 -1.05764e-010 1.2659e-011
